:SAMPLES-PER-SECOND 30
:FULLY-SPECIFIED
:DEGREES
210
root  -5.70489 40.9998 0.56573 -4.11871 -73.3434 6.40381
RightUpLeg  9.11146 -4.81179 -3.54277
RightLeg  -3.52829 -31.1568 3.16326
RightFoot  -0.73879 -0.758415 8.10648
RightToes  -3.11842e-008 1.75238e-005 3.56266e-009
Spine  -3.39679 10.3472 13.2551
Spine1  0.747145 12.0591 -12.421
HEad  -23.9682 -22.9603 3.17453
LeftShoulder1  1.01537 -0.65892 -17.733
LeftArm  -73.1801 29.0039 -21.321
LeftForeArm  34.3201 -67.5844 -24.368
LeftHand  -0.42037 -2.04926 6.74797
RightShoulder  2.68 6.90309 19.3205
RightArm  28.4145 50.8731 58.8904
RightForeArm  -10.5528 69.9222 35.6662
RightHand  -0.108235 4.44113 -1.56131
LeftUpLeg  2.83056 0.220294 1.33727
LeftLeg  -2.00568 -0.820311 -0.68137
LeftFoot  0.0306781 0.229489 -2.30798
LeftToes  4.7713e-008 1.46693e-008 1.32589e-009
211
root  -5.63365 40.9477 0.575192 -4.26573 -73.9166 6.39508
RightUpLeg  9.23732 -4.58732 -3.39927
RightLeg  -3.86484 -31.0012 3.17427
RightFoot  -1.21777 -0.69085 7.68712
RightToes  -3.11842e-008 1.75238e-005 3.56266e-009
Spine  -3.86624 10.3507 11.6208
Spine1  1.44031 11.8329 -10.4092
HEad  -23.5355 -22.7461 2.90875
LeftShoulder1  1.14206 -1.00399 -18.7844
LeftArm  -72.5931 28.3106 -20.6331
LeftForeArm  34.1066 -68.0579 -25.1228
LeftHand  -0.479401 -2.25503 7.48746
RightShoulder  2.64431 6.84515 19.1005
RightArm  26.9557 49.9564 56.8294
RightForeArm  -9.05301 70.4038 36.6899
RightHand  -0.154276 4.45516 -2.10308
LeftUpLeg  3.21317 0.492776 1.45677
LeftLeg  -2.39468 -0.597884 -0.889603
LeftFoot  -0.324876 0.190644 -1.95172
LeftToes  4.7713e-008 1.46693e-008 1.32589e-009
212
root  -5.54751 40.8562 0.573536 -5.01222 -74.4054 6.67157
RightUpLeg  9.64542 -4.43645 -3.29224
RightLeg  -4.03584 -30.8441 3.03551
RightFoot  -2.09236 -0.567746 6.83417
RightToes  -3.11842e-008 1.75238e-005 3.56266e-009
Spine  -4.24178 9.89496 11.7246
Spine1  2.87737 11.6111 -10.941
HEad  -24.1383 -22.0847 4.00568
LeftShoulder1  1.10692 -0.962772 -18.183
LeftArm  -72.2166 27.2966 -20.5078
LeftForeArm  34.5501 -68.555 -25.8533
LeftHand  -0.487437 -2.12966 7.72267
RightShoulder  2.81905 7.23644 19.8564
RightArm  25.0434 49.8252 55.0668
RightForeArm  -8.11329 70.5673 37.0062
RightHand  -0.159123 4.70039 -2.1234
LeftUpLeg  3.89635 0.541337 1.31473
LeftLeg  -2.69554 -0.0557877 -0.897266
LeftFoot  -1.00338 0.131744 -1.39262
LeftToes  4.7713e-008 1.46693e-008 1.32589e-009
213
root  -5.48047 40.8226 0.561117 -6.67859 -75.0423 7.85312
RightUpLeg  10.4216 -4.38141 -3.53424
RightLeg  -4.86275 -30.1373 3.23241
RightFoot  -2.51107 -0.480969 6.00433
RightToes  -3.11842e-008 1.75238e-005 3.56266e-009
Spine  -4.56026 9.64959 10.7005
Spine1  4.17171 11.4381 -10.4151
HEad  -25 -21.2401 4.48844
LeftShoulder1  1.15063 -1.15741 -18.0759
LeftArm  -71.5255 26.3545 -20.1965
LeftForeArm  35.8806 -69.4331 -27.1502
LeftHand  -0.50369 -2.09936 8.00517
RightShoulder  2.89397 7.29756 20.4382
RightArm  23.005 49.1556 53.4815
RightForeArm  -7.17068 70.939 37.891
RightHand  -0.179842 4.82447 -2.33824
LeftUpLeg  4.61964 0.416252 0.93056
LeftLeg  -3.0307 0.786654 -0.831591
LeftFoot  -1.02362 0.114224 -1.20629
LeftToes  4.7713e-008 1.46693e-008 1.32589e-009
214
root  -5.39252 40.8146 0.544295 -7.76694 -75.7119 8.46568
RightUpLeg  10.7945 -4.2907 -3.57282
RightLeg  -5.02305 -29.695 3.11003
RightFoot  -2.71141 -0.444216 5.63689
RightToes  -3.11842e-008 1.75238e-005 3.56266e-009
Spine  -5.0992 9.31091 9.49027
Spine1  5.6582 11.0529 -9.27488
HEad  -25.8563 -20.8722 4.58534
LeftShoulder1  1.16328 -1.18222 -18.2288
LeftArm  -70.2333 25.6764 -20.0186
LeftForeArm  36.5634 -70.6653 -29.4816
LeftHand  -0.537125 -1.79958 8.858
RightShoulder  3.02926 7.59177 20.9839
RightArm  21.0836 48.1368 52.0111
RightForeArm  -5.00629 71.5455 39.3916
RightHand  -0.256986 4.77952 -3.22917
LeftUpLeg  5.09504 0.576306 0.892234
LeftLeg  -3.03289 1.28021 -0.942466
LeftFoot  -1.0035 0.121533 -1.32632
LeftToes  4.7713e-008 1.46693e-008 1.32589e-009
215
root  -5.29487 40.8182 0.538828 -8.1199 -76.258 8.599
RightUpLeg  10.5348 -4.30414 -3.56165
RightLeg  -4.43509 -29.3559 2.76876
RightFoot  -2.85707 -0.418643 5.37714
RightToes  -3.11842e-008 1.75238e-005 3.56266e-009
Spine  -4.99531 8.9802 8.92228
Spine1  5.66592 10.7546 -9.18703
HEad  -25.3624 -20.4449 4.71335
LeftShoulder1  1.16681 -1.2672 -17.8227
LeftArm  -67.8867 25.2718 -20.2001
LeftForeArm  37.9604 -72.4441 -33.549
LeftHand  -0.584186 -1.54701 9.94171
RightShoulder  3.15641 7.79111 21.6697
RightArm  18.4341 45.7623 49.7519
RightForeArm  -0.813349 72.9049 43.4324
RightHand  -0.224964 4.91354 -2.83409
LeftUpLeg  5.0491 0.659574 0.924925
LeftLeg  -2.64831 1.70021 -1.00293
LeftFoot  -1.09123 0.120809 -1.2875
LeftToes  4.7713e-008 1.46693e-008 1.32589e-009
216
root  -5.16496 40.8286 0.535927 -7.57085 -76.8568 8.06773
RightUpLeg  9.89691 -4.29374 -3.51252
RightLeg  -3.68596 -28.7379 2.49533
RightFoot  -2.90738 -0.421798 5.4468
RightToes  -3.11842e-008 1.75238e-005 3.56266e-009
Spine  -5.21085 8.77514 7.96422
Spine1  5.64876 10.3704 -8.18052
HEad  -25.015 -19.6506 4.58549
LeftShoulder1  1.28641 -1.64348 -18.4189
LeftArm  -65.9957 24.4335 -20.0629
LeftForeArm  41.4393 -74.4333 -39.3978
LeftHand  -0.602486 -1.75882 9.96413
RightShoulder  3.26857 7.97544 22.2366
RightArm  15.8782 43.1556 47.137
RightForeArm  3.9345 74.2756 48.6149
RightHand  -0.235786 4.60259 -3.02835
LeftUpLeg  4.70862 0.563464 0.978039
LeftLeg  -2.32766 2.3984 -0.866758
LeftFoot  -1.12091 0.122723 -1.27247
LeftToes  4.7713e-008 1.46693e-008 1.32589e-009
217
root  -5.05221 40.8456 0.5257 -6.75235 -77.5097 7.21461
RightUpLeg  9.76404 -4.17724 -3.34786
RightLeg  -3.9347 -28.1661 2.71249
RightFoot  -2.67507 -0.416605 5.25321
RightToes  -3.11842e-008 1.75238e-005 3.56266e-009
Spine  -5.49528 8.5414 7.41963
Spine1  5.94151 10.0702 -7.78517
HEad  -24.3907 -19.628 4.83766
LeftShoulder1  1.37698 -2.00172 -18.4332
LeftArm  -64.0967 23.5515 -20.4895
LeftForeArm  49.0656 -76.6938 -48.9448
LeftHand  -0.595447 -1.98243 9.5638
RightShoulder  3.26379 7.70926 22.9071
RightArm  13.8262 40.8317 45.0663
RightForeArm  8.5593 75.3383 54.0255
RightHand  -0.239564 5.10177 -2.95274
LeftUpLeg  4.61528 0.522028 1.10155
LeftLeg  -2.34064 3.07587 -0.670603
LeftFoot  -1.01661 0.132798 -1.38382
LeftToes  4.7713e-008 1.46693e-008 1.32589e-009
218
root  -4.92431 40.8485 0.498035 -6.86598 -78.1058 7.08865
RightUpLeg  9.93161 -4.19619 -3.34719
RightLeg  -4.34742 -27.5627 2.9948
RightFoot  -2.67218 -0.383784 4.8179
RightToes  -3.11842e-008 1.75238e-005 3.56266e-009
Spine  -5.07553 8.28048 6.06051
Spine1  5.6204 9.61222 -6.56164
HEad  -24.4886 -19.1789 4.88085
LeftShoulder1  1.51039 -2.39295 -19.0839
LeftArm  -62.132 22.234 -20.9345
LeftForeArm  63.1112 -78.7409 -64.2093
LeftHand  -0.617229 -2.15247 9.6972
RightShoulder  3.29737 7.72192 23.1883
RightArm  11.5169 37.9956 42.0759
RightForeArm  17.0665 76.6094 62.5758
RightHand  -0.255818 5.02523 -3.15131
LeftUpLeg  4.76858 0.72784 1.2494
LeftLeg  -2.39968 3.42209 -0.759238
LeftFoot  -0.942909 0.141776 -1.49443
LeftToes  4.7713e-008 1.46693e-008 1.32589e-009
219
root  -4.77496 40.8342 0.448189 -6.88664 -78.2589 7.06667
RightUpLeg  9.75824 -4.03858 -3.19779
RightLeg  -4.46041 -27.6865 3.01122
RightFoot  -2.88804 -0.353154 4.50904
RightToes  -3.11842e-008 1.75238e-005 3.56266e-009
Spine  -4.94084 7.54836 4.79104
Spine1  5.41141 8.7693 -5.83901
HEad  -24.5248 -17.7041 4.77582
LeftShoulder1  1.68489 -2.96372 -19.5664
LeftArm  -60.3282 21.0884 -20.863
LeftForeArm  82.0185 -79.7602 -84.2341
LeftHand  -0.606864 -2.27339 9.39405
RightShoulder  3.43868 8.01296 23.7011
RightArm  8.67364 34.9706 39.7808
RightForeArm  26.2045 77.3901 70.2114
RightHand  -0.224656 5.01781 -2.80787
LeftUpLeg  4.44673 0.838685 1.33586
LeftLeg  -2.0947 3.4292 -0.779592
LeftFoot  -1.05616 0.146817 -1.55749
LeftToes  4.7713e-008 1.46693e-008 1.32589e-009
220
root  -4.62893 40.8298 0.408202 -6.771 -78.6408 6.85616
RightUpLeg  9.46512 -3.81111 -3.00559
RightLeg  -4.22949 -27.5755 2.7927
RightFoot  -2.99025 -0.336603 4.32869
RightToes  -3.11842e-008 1.75238e-005 3.56266e-009
Spine  -5.12139 7.05017 3.48033
Spine1  5.97707 8.10217 -4.61262
HEad  -25.173 -16.9393 4.90335
LeftShoulder1  1.7848 -3.27213 -19.8735
LeftArm  -58.433 18.6795 -21.204
LeftForeArm  98.5855 -79.5151 -102.169
LeftHand  -0.614627 -2.56764 9.19135
RightShoulder  3.51213 8.13888 24.0276
RightArm  5.17986 31.879 37.3891
RightForeArm  36.9227 77.9692 79.8473
RightHand  -0.171583 5.24219 -2.18093
LeftUpLeg  4.14548 0.983228 1.47299
LeftLeg  -1.66893 3.63934 -0.800756
LeftFoot  -1.15157 0.159125 -1.73372
LeftToes  4.7713e-008 1.46693e-008 1.32589e-009
221
root  -4.48256 40.8344 0.390368 -6.10506 -78.8174 6.34201
RightUpLeg  8.95079 -3.62254 -2.81813
RightLeg  -4.0612 -27.6173 2.66472
RightFoot  -2.90146 -0.335718 4.27875
RightToes  -3.11842e-008 1.75238e-005 3.56266e-009
Spine  -5.13483 6.44081 2.27112
Spine1  5.99284 7.29575 -3.40483
HEad  -26.0442 -15.8686 4.91649
LeftShoulder1  1.9059 -3.55835 -20.5682
LeftArm  -55.7482 16.0695 -20.8094
LeftForeArm  112.028 -78.2787 -118.109
LeftHand  -0.560397 -2.82748 8.11917
RightShoulder  3.50724 7.92663 24.5699
RightArm  1.73401 29.3438 34.8246
RightForeArm  47.3345 78.1421 90.5097
RightHand  -0.200221 5.30276 -2.48257
LeftUpLeg  3.55999 0.923732 1.52839
LeftLeg  -1.28411 3.88441 -0.713066
LeftFoot  -1.12859 0.156406 -1.67706
LeftToes  4.7713e-008 1.46693e-008 1.32589e-009
